<svg width="144" height="80" viewBox="0 0 144 80" fill="none" xmlns="http://www.w3.org/2000/svg"><path fill-rule="evenodd" clip-rule="evenodd" d="M32.001 0H16.001V16H32.001V0ZM48.0019 0H32.002V16H48.0019V0ZM128.002 63.9988H143.998V79.9988H128.002H127.998H112.002V63.9988H127.998H128.002ZM112.001 63.9988H96.001V79.9988H112.001V63.9988ZM80 64.0002V79.9988H96V64.0002V63.9988V48.0002H80V63.9988V64.0002ZM112.001 31.9995H96.001V47.9995H112.001V31.9995ZM112.002 16.001H128.002V32.001H112.002V16.001ZM32.001 32.002H16.001V48.0019H32.001V32.002ZM32.002 32.002H48.0019V48.0019H32.002V32.002ZM16 16.001H0V32.001H16V16.001ZM0 32.002H16V48.0019H0V32.002ZM16 48.0039H0V64.0039H16V48.0039Z" fill="white"/><path fill-rule="evenodd" clip-rule="evenodd" d="M64 0H80V16H64V0ZM96.001 0H80.001V16H96.001V0ZM128.003 0H112.003V16H128.003V0ZM112.002 0H96.002V16H112.002V0ZM32.0029 64H47.999V63.9988H63.999V64V79.9988V80H48.0029H47.999H32.0029V64ZM16.002 64H32.0019V80H16.002V64Z" fill="#CDD4DD"/><rect x="47.998" width="16" height="16" fill="url(#paint0_linear_2464_21203)"/><rect x="64" y="63.999" width="16" height="16" fill="url(#paint1_linear_2464_21203)"/><path fill-rule="evenodd" clip-rule="evenodd" d="M16.001 0H0V16.001H16V32.001H0V32.002H16V48.0019H0V48.0039H16V79.9997H16.002V64H32.0019V79.9997H32.0029V64H47.999V63.9988H63.999V64V79.9988V79.9997H143.999V0H128.003V16H112.003V0H112.002V16H96.002V0H96.001V16H80.001V0H80V16H64V0H63.998V16H48.0019H47.998H32.002V0H32.001V16H16.001V0ZM128.002 63.9988H143.998V79.9988H128.002H127.998H112.002V63.9988H127.998H128.002ZM112.001 63.9988H96.001V79.9988H112.001V63.9988ZM80 79.9988H96V64.0002V63.9988V48.0002H80V63.9988V64.0002V79.9988ZM112.001 31.9995H96.001V47.9995H112.001V31.9995ZM112.002 16.001H128.002V32.001H112.002V16.001ZM32.001 32.002H16.001V48.0019H32.001V32.002ZM32.002 32.002H48.0019V48.0019H32.002V32.002ZM63.999 63.9988H79.999V79.9988H63.999V63.9988Z" fill="#5951E5"/><defs><linearGradient id="paint0_linear_2464_21203" x1="48.798" y1="4.79999" x2="62.398" y2="4.79999" gradientUnits="userSpaceOnUse"><stop stop-color="white"/><stop offset="1" stop-color="#CDD4DD"/></linearGradient><linearGradient id="paint1_linear_2464_21203" x1="80" y1="71.999" x2="64" y2="71.999" gradientUnits="userSpaceOnUse"><stop stop-color="white"/><stop offset="1" stop-color="#CDD4DD"/></linearGradient></defs></svg>